<svg xmlns="http://www.w3.org/2000/svg" viewBox="0 0 64 64">
  <defs>
    <linearGradient id="bg" x1="0%" y1="0%" x2="100%" y2="100%">
      <stop offset="0%" stop-color="#0b1830" />
      <stop offset="100%" stop-color="#060b15" />
    </linearGradient>
    <linearGradient id="accent" x1="0%" y1="0%" x2="100%" y2="100%">
      <stop offset="0%" stop-color="#6f6bff" />
      <stop offset="100%" stop-color="#4cc9ff" />
    </linearGradient>
  </defs>
  <rect width="64" height="64" rx="14" fill="url(#bg)" />
  <path d="M32 7.5l17 9.8v19.4L32 56.5 15 36.7V17.3L32 7.5z" fill="none" stroke="url(#accent)" stroke-width="3.4" stroke-linejoin="round"/>
  <path d="M24 23.5h15.4c2.3 0 4.1 1.8 4.1 4 0 1.8-1.1 3.2-2.8 3.8 2.1.5 3.4 2.1 3.4 4.3 0 3.1-2.4 5-6.2 5H24v-3.9h13.5c1.7 0 2.7-.7 2.7-2s-.9-1.9-2.6-1.9H27.4v-3.7h9.3c1.6 0 2.5-.6 2.5-1.8s-.9-1.8-2.6-1.8H24v-4z" fill="#f5f7ff"/>
  <path d="M20 18.5l-2.6 13.7L20 45.5" fill="none" stroke="#1f2d4f" stroke-width="2" stroke-linecap="round"/>
  <path d="M44 18.5l2.6 13.7L44 45.5" fill="none" stroke="#1f2d4f" stroke-width="2" stroke-linecap="round"/>
</svg>
